# xmcd
#
# Track frame offsets:
#	150
#	17854
#	31812
#	49854
#	65671
#	87701
#	100899
#	118610
#	135270
#	153023
#
# Disc length: 2287 seconds
#
# Revision: 1
# Processed by: cddbd v1.5.2PL0 Copyright (c) Steve Scherf et al.
# Submitted via: audiograbber 1.83.01
#
DISCID=7c08ed0a
DTITLE=Maria Hänninen - Soitellaanpa
DYEAR=2014
DGENRE=Pop
TTITLE0=Pahviprinsessa
TTITLE1=Haaveiden Laiva
TTITLE2=Hei Rakkaus
TTITLE3=Soitellaanpa Huomenna
TTITLE4=Valkeaksi Pesty Uni
TTITLE5=Syytön?
TTITLE6=Tätä Päivää
TTITLE7=Toivon Takapiha
TTITLE8=Oi Taivas
TTITLE9=Itken Itkuni Pois
EXTD=
EXTT0=
EXTT1=
EXTT2=
EXTT3=
EXTT4=
EXTT5=
EXTT6=
EXTT7=
EXTT8=
EXTT9=
PLAYORDER=
